<svg width="29" height="29" viewBox="0 0 29 29" fill="none" xmlns="http://www.w3.org/2000/svg">
<g clip-path="url(#clip0_178_1520)">
<path d="M14.5504 28.9782C6.58689 28.9782 0.108603 22.5 0.108603 14.5365C0.108603 6.57301 6.58689 0.0947266 14.5504 0.0947266C22.5138 0.0947266 28.9921 6.57301 28.9921 14.5365C28.9921 16.0447 27.7702 17.2666 26.262 17.2666H14.5504C13.0421 17.2666 11.8202 16.0447 11.8202 14.5365C11.8202 13.0282 13.0421 11.8064 14.5504 11.8064H23.1084C21.9496 8.18439 18.5521 5.55498 14.5504 5.55498C9.59852 5.55498 5.56885 9.58464 5.56885 14.5365C5.56885 19.4895 9.59852 23.518 14.5504 23.518C16.0586 23.518 17.2805 24.7399 17.2805 26.2481C17.2805 27.7564 16.0586 28.9782 14.5504 28.9782Z" fill="white"/>
</g>
<defs>
<clipPath id="clip0_178_1520">
<rect width="29" height="29" fill="white" transform="translate(-0.00161743)"/>
</clipPath>
</defs>
</svg>
