<svg width="48" height="48" viewBox="0 0 48 48" fill="none" xmlns="http://www.w3.org/2000/svg">
<g clip-path="url(#clip0_180_2224)">
<path d="M24 48C30.3652 48 36.4697 45.4714 40.9706 40.9706C45.4714 36.4697 48 30.3652 48 24C48 17.6348 45.4714 11.5303 40.9706 7.02944C36.4697 2.52856 30.3652 0 24 0C17.6348 0 11.5303 2.52856 7.02944 7.02944C2.52856 11.5303 0 17.6348 0 24C0 30.3652 2.52856 36.4697 7.02944 40.9706C11.5303 45.4714 17.6348 48 24 48ZM24 12C25.2469 12 26.25 13.0031 26.25 14.25V24.75C26.25 25.9969 25.2469 27 24 27C22.7531 27 21.75 25.9969 21.75 24.75V14.25C21.75 13.0031 22.7531 12 24 12ZM21 33C21 32.2043 21.3161 31.4413 21.8787 30.8787C22.4413 30.3161 23.2044 30 24 30C24.7956 30 25.5587 30.3161 26.1213 30.8787C26.6839 31.4413 27 32.2043 27 33C27 33.7957 26.6839 34.5587 26.1213 35.1213C25.5587 35.6839 24.7956 36 24 36C23.2044 36 22.4413 35.6839 21.8787 35.1213C21.3161 34.5587 21 33.7957 21 33Z" fill="#F83E54"/>
</g>
<defs>
<clipPath id="clip0_180_2224">
<rect width="48" height="48" fill="white"/>
</clipPath>
</defs>
</svg>
