<svg width="48" height="48" viewBox="0 0 48 48" fill="none" xmlns="http://www.w3.org/2000/svg">
<g clip-path="url(#clip0_178_126)">
<path d="M13.5 8C12.6687 8 12 8.66875 12 9.5C12 11.9313 13.4625 13.2125 14.4437 14.0687L14.5125 14.1312C15.5312 15.0187 16 15.4938 16 16.5C16 17.3313 16.6687 18 17.5 18C18.3313 18 19 17.3313 19 16.5C19 14.0687 17.5375 12.7875 16.5562 11.9313L16.4875 11.8688C15.4688 10.9813 15 10.5062 15 9.5C15 8.66875 14.3313 8 13.5 8ZM10 20C8.89375 20 8 20.8938 8 22V34C8 37.3125 10.6875 40 14 40H26C29.3125 40 32 37.3125 32 34H33C36.8687 34 40 30.8687 40 27C40 23.1313 36.8687 20 33 20H30H10ZM32 24H33C34.6562 24 36 25.3438 36 27C36 28.6562 34.6562 30 33 30H32V24ZM22 9.5C22 8.66875 21.3313 8 20.5 8C19.6687 8 19 8.66875 19 9.5C19 11.9313 20.4625 13.2125 21.4438 14.0687L21.5125 14.1312C22.5312 15.0187 23 15.4938 23 16.5C23 17.3313 23.6687 18 24.5 18C25.3312 18 26 17.3313 26 16.5C26 14.0687 24.5375 12.7875 23.5562 11.9313L23.4875 11.8688C22.4688 10.9813 22 10.5062 22 9.5Z" fill="#027FFE"/>
</g>
<defs>
<clipPath id="clip0_178_126">
<rect width="32" height="32" fill="white" transform="translate(8 8)"/>
</clipPath>
</defs>
</svg>
