<svg width="48" height="48" viewBox="0 0 48 48" fill="none" xmlns="http://www.w3.org/2000/svg">
<g clip-path="url(#clip0_178_133)">
<path d="M26 10C26 8.89375 25.1063 8 24 8C22.8938 8 22 8.89375 22 10V25.1688L17.4125 20.5813C16.6313 19.8 15.3625 19.8 14.5813 20.5813C13.8 21.3625 13.8 22.6313 14.5813 23.4125L22.5813 31.4125C23.3625 32.1938 24.6313 32.1938 25.4125 31.4125L33.4125 23.4125C34.1938 22.6313 34.1938 21.3625 33.4125 20.5813C32.6313 19.8 31.3625 19.8 30.5812 20.5813L26 25.1688V10ZM12 30C9.79375 30 8 31.7938 8 34V36C8 38.2062 9.79375 40 12 40H36C38.2062 40 40 38.2062 40 36V34C40 31.7938 38.2062 30 36 30H29.6562L26.825 32.8312C25.2625 34.3937 22.7312 34.3937 21.1687 32.8312L18.3438 30H12ZM35 33.5C35.3978 33.5 35.7794 33.658 36.0607 33.9393C36.342 34.2206 36.5 34.6022 36.5 35C36.5 35.3978 36.342 35.7794 36.0607 36.0607C35.7794 36.342 35.3978 36.5 35 36.5C34.6022 36.5 34.2206 36.342 33.9393 36.0607C33.658 35.7794 33.5 35.3978 33.5 35C33.5 34.6022 33.658 34.2206 33.9393 33.9393C34.2206 33.658 34.6022 33.5 35 33.5Z" fill="#027FFE"/>
</g>
<defs>
<clipPath id="clip0_178_133">
<rect width="32" height="32" fill="white" transform="translate(8 8)"/>
</clipPath>
</defs>
</svg>
