<svg width="24" height="25" viewBox="0 0 24 25" fill="none" xmlns="http://www.w3.org/2000/svg">
<g clip-path="url(#clip0_178_1769)">
<path d="M21.75 12.5C21.75 9.91414 20.7228 7.43419 18.8943 5.60571C17.0658 3.77723 14.5859 2.75 12 2.75C9.41414 2.75 6.93419 3.77723 5.10571 5.60571C3.27723 7.43419 2.25 9.91414 2.25 12.5C2.25 15.0859 3.27723 17.5658 5.10571 19.3943C6.93419 21.2228 9.41414 22.25 12 22.25C14.5859 22.25 17.0658 21.2228 18.8943 19.3943C20.7228 17.5658 21.75 15.0859 21.75 12.5ZM0 12.5C0 9.3174 1.26428 6.26516 3.51472 4.01472C5.76516 1.76428 8.8174 0.5 12 0.5C15.1826 0.5 18.2348 1.76428 20.4853 4.01472C22.7357 6.26516 24 9.3174 24 12.5C24 15.6826 22.7357 18.7348 20.4853 20.9853C18.2348 23.2357 15.1826 24.5 12 24.5C8.8174 24.5 5.76516 23.2357 3.51472 20.9853C1.26428 18.7348 0 15.6826 0 12.5ZM7.95938 8.24844C8.32969 7.20312 9.32344 6.5 10.4344 6.5H13.1672C14.8031 6.5 16.125 7.82656 16.125 9.45781C16.125 10.5172 15.5578 11.4969 14.6391 12.0266L13.125 12.8937C13.1156 13.5031 12.6141 14 12 14C11.3766 14 10.875 13.4984 10.875 12.875V12.2422C10.875 11.8391 11.0906 11.4688 11.4422 11.2672L13.5187 10.0766C13.7391 9.95 13.875 9.71562 13.875 9.4625C13.875 9.06875 13.5562 8.75469 13.1672 8.75469H10.4344C10.275 8.75469 10.1344 8.85312 10.0828 9.00312L10.0641 9.05938C9.85781 9.64531 9.21094 9.95 8.62969 9.74375C8.04844 9.5375 7.73906 8.89062 7.94531 8.30938L7.96406 8.25312L7.95938 8.24844ZM10.5 17C10.5 16.6022 10.658 16.2206 10.9393 15.9393C11.2206 15.658 11.6022 15.5 12 15.5C12.3978 15.5 12.7794 15.658 13.0607 15.9393C13.342 16.2206 13.5 16.6022 13.5 17C13.5 17.3978 13.342 17.7794 13.0607 18.0607C12.7794 18.342 12.3978 18.5 12 18.5C11.6022 18.5 11.2206 18.342 10.9393 18.0607C10.658 17.7794 10.5 17.3978 10.5 17Z" fill="#027FFE"/>
</g>
<defs>
<clipPath id="clip0_178_1769">
<rect width="24" height="24" fill="white" transform="translate(0 0.5)"/>
</clipPath>
</defs>
</svg>
