<svg width="48" height="48" viewBox="0 0 48 48" fill="none" xmlns="http://www.w3.org/2000/svg">
<g clip-path="url(#clip0_180_2019)">
<path d="M24 10C24.8875 10 25.7063 10.4687 26.1563 11.2375L39.6563 34.2375C40.1125 35.0125 40.1125 35.9688 39.6688 36.7437C39.225 37.5187 38.3938 38 37.5 38H10.5C9.60626 38 8.77501 37.5187 8.33126 36.7437C7.88751 35.9688 7.89376 35.0062 8.34376 34.2375L21.8438 11.2375C22.2938 10.4687 23.1125 10 24 10ZM24 18C23.1688 18 22.5 18.6687 22.5 19.5V26.5C22.5 27.3312 23.1688 28 24 28C24.8313 28 25.5 27.3312 25.5 26.5V19.5C25.5 18.6687 24.8313 18 24 18ZM26 32C26 31.4696 25.7893 30.9609 25.4142 30.5858C25.0392 30.2107 24.5304 30 24 30C23.4696 30 22.9609 30.2107 22.5858 30.5858C22.2107 30.9609 22 31.4696 22 32C22 32.5304 22.2107 33.0391 22.5858 33.4142C22.9609 33.7893 23.4696 34 24 34C24.5304 34 25.0392 33.7893 25.4142 33.4142C25.7893 33.0391 26 32.5304 26 32Z" fill="#027FFE"/>
</g>
<defs>
<clipPath id="clip0_180_2019">
<rect width="32" height="32" fill="white" transform="translate(8 8)"/>
</clipPath>
</defs>
</svg>
