<svg width="48" height="48" viewBox="0 0 48 48" fill="none" xmlns="http://www.w3.org/2000/svg">
<path d="M15.2 35.6999C11.225 35.6999 8 32.4749 8 28.4999C8 25.3599 10.01 22.6899 12.81 21.7049C12.805 21.5699 12.8 21.4349 12.8 21.2999C12.8 16.8799 16.38 13.2999 20.8 13.2999C23.765 13.2999 26.35 14.9099 27.735 17.3099C28.495 16.7999 29.415 16.4999 30.4 16.4999C33.05 16.4999 35.2 18.6499 35.2 21.2999C35.2 21.9099 35.085 22.4899 34.88 23.0299C37.8 23.6199 40 26.2049 40 29.2999C40 32.8349 37.135 35.6999 33.6 35.6999H15.2ZM19.15 24.8499C18.68 25.3199 18.68 26.0799 19.15 26.5449C19.62 27.0099 20.38 27.0149 20.845 26.5449L22.795 24.5949V31.2999C22.795 31.9649 23.33 32.4999 23.995 32.4999C24.66 32.4999 25.195 31.9649 25.195 31.2999V24.5949L27.145 26.5449C27.615 27.0149 28.375 27.0149 28.84 26.5449C29.305 26.0749 29.31 25.3149 28.84 24.8499L24.84 20.8499C24.37 20.3799 23.61 20.3799 23.145 20.8499L19.145 24.8499H19.15Z" fill="#027FFE"/>
</svg>
