<svg width="48" height="48" viewBox="0 0 48 48" fill="none" xmlns="http://www.w3.org/2000/svg">
<g clip-path="url(#clip0_178_140)">
<path d="M31.8362 10.2876C32.2049 9.43133 31.9299 8.43133 31.1737 7.88133C30.4174 7.33133 29.3862 7.38133 28.6799 7.99383L12.6799 21.9938C12.0549 22.5438 11.8299 23.4251 12.1237 24.2001C12.4174 24.9751 13.1674 25.5001 13.9987 25.5001H20.9674L16.1612 36.7126C15.7924 37.5688 16.0674 38.5688 16.8237 39.1188C17.5799 39.6688 18.6112 39.6188 19.3174 39.0063L35.3174 25.0063C35.9424 24.4563 36.1674 23.5751 35.8737 22.8001C35.5799 22.0251 34.8362 21.5063 33.9987 21.5063H27.0299L31.8362 10.2876Z" fill="#027FFE"/>
</g>
<defs>
<clipPath id="clip0_178_140">
<rect width="32" height="32" fill="white" transform="translate(8 8)"/>
</clipPath>
</defs>
</svg>
