<svg width="24" height="25" viewBox="0 0 24 25" fill="none" xmlns="http://www.w3.org/2000/svg">
<path fill-rule="evenodd" clip-rule="evenodd" d="M21.0211 10.8768C21.0211 15.5657 17.22 19.3668 12.5311 19.3668C7.84215 19.3668 4.04103 15.5657 4.04103 10.8768C4.04103 6.18784 7.84215 2.38672 12.5311 2.38672C17.22 2.38672 21.0211 6.18784 21.0211 10.8768ZM11.5977 6.65405C11.5977 6.31035 11.8763 6.03174 12.22 6.03174C12.5637 6.03174 12.8423 6.31035 12.8423 6.65405V6.85265C13.3092 6.89158 13.8218 6.98497 14.3772 7.13145C14.6873 7.22266 14.8697 7.53277 14.7968 7.84288C14.7055 8.15299 14.3954 8.33541 14.0853 8.26244C12.4253 7.82464 11.6227 8.00706 11.2396 8.2442C11.0207 8.40838 10.8748 8.60904 10.8383 8.86442C10.6924 9.64882 11.1666 9.90421 12.7172 10.3602C14.0124 10.7251 15.7818 11.2359 15.4352 13.1695C15.3258 13.8262 14.9792 14.3552 14.4137 14.6653C13.9576 14.9207 13.4286 15.0119 12.8814 15.0119L12.8423 15.0117C12.8417 15.3549 12.5633 15.633 12.22 15.633C11.8763 15.633 11.5977 15.3543 11.5977 15.0107V14.8604C10.94 14.7166 10.3588 14.5013 9.99916 14.3552C9.70729 14.2457 9.56136 13.8992 9.68905 13.6073C9.81675 13.2972 10.1451 13.1512 10.4552 13.2789C11.8598 13.8627 13.1915 13.9904 13.8482 13.6438C14.1036 13.4978 14.2313 13.2789 14.286 12.9688C14.4319 12.1844 13.9576 11.929 12.4071 11.473C11.1119 11.1082 9.34246 10.5974 9.68905 8.68201C9.78026 8.09827 10.1086 7.5875 10.6194 7.27739C10.895 7.09365 11.222 6.96749 11.5977 6.89752V6.65405ZM4.04119 16.6575H4.92765C5.57522 17.508 6.36225 18.2467 7.25463 18.8393H6.22301H4.04119V20.4312H6.22301H17.7782H19.96V18.8393H17.8089C18.699 18.2482 19.4843 17.5119 20.1309 16.6641C21.256 16.7512 22.1418 17.6918 22.1418 18.8393V20.4312C22.1418 21.6362 21.165 22.613 19.96 22.613H4.04119C2.83621 22.613 1.85938 21.6362 1.85938 20.4312V18.8393C1.85938 17.6343 2.83621 16.6575 4.04119 16.6575Z" fill="white"/>
</svg>
