<svg width="48" height="48" viewBox="0 0 48 48" fill="none" xmlns="http://www.w3.org/2000/svg">
<g clip-path="url(#clip0_178_154)">
<path d="M40.075 23.5C40.075 23.655 39.99 23.805 39.85 23.875L35.395 26.55C35.325 26.59 35.255 26.62 35.17 26.62C35.1 26.62 35.015 26.605 34.945 26.565C34.805 26.48 34.72 26.34 34.72 26.175V24.395H22.785C24.05 26.375 24.81 29.74 26.265 29.74H27.6V28.4C27.6 28.15 27.795 27.955 28.045 27.955H32.5C32.75 27.955 32.945 28.15 32.945 28.4V32.855C32.945 33.105 32.75 33.3 32.5 33.3H28.045C27.795 33.3 27.6 33.105 27.6 32.855V31.52H26.265C22.495 31.52 22.21 24.395 20.03 24.395H15.015C14.61 25.925 13.22 27.07 11.565 27.07C9.6 27.065 8 25.465 8 23.5C8 21.535 9.6 19.935 11.565 19.935C13.22 19.935 14.615 21.075 15.015 22.61C16.97 22.61 17.21 23.085 18.745 19.59C20.75 15.135 21.65 15.485 24.19 15.485C24.565 14.44 25.54 13.705 26.71 13.705C28.185 13.705 29.385 14.9 29.385 16.38C29.385 17.86 28.19 19.055 26.71 19.055C25.54 19.055 24.565 18.315 24.19 17.275H22.7C21.245 17.275 20.485 20.645 19.22 22.62H34.725V20.84C34.725 20.675 34.81 20.535 34.95 20.45C35.09 20.365 35.27 20.38 35.395 20.465L39.85 23.14C39.99 23.195 40.075 23.345 40.075 23.5Z" fill="#027FFE"/>
</g>
<defs>
<clipPath id="clip0_178_154">
<rect width="32" height="32" fill="white" transform="translate(8 8)"/>
</clipPath>
</defs>
</svg>
