<svg width="43" height="42" viewBox="0 0 43 42" fill="none" xmlns="http://www.w3.org/2000/svg">
<path fill-rule="evenodd" clip-rule="evenodd" d="M42.3486 21C42.3486 32.598 32.8685 42 21.1743 42C9.48006 42 0 32.598 0 21C0 9.40202 9.48006 0 21.1743 0C32.8685 0 42.3486 9.40202 42.3486 21ZM37.5406 19.9975C37.5406 26.5831 32.1576 31.9218 25.5174 31.9218C18.8771 31.9218 13.4941 26.5831 13.4941 19.9975C13.4941 13.4119 18.8771 8.07324 25.5174 8.07324C32.1576 8.07324 37.5406 13.4119 37.5406 19.9975Z" fill="url(#paint0_linear_180_2020)"/>
<path fill-rule="evenodd" clip-rule="evenodd" d="M28.2527 17.3927C32.6131 13.0703 36.3478 10.4998 38.6812 11.0061C40.8492 11.4747 41.5414 14.9149 41.985 17.1193L41.9945 17.1665C42.9243 21.797 42.3465 30.9611 35.0117 36.8801C30.7187 40.3449 26.4125 41.9998 21.1722 41.9998C7.82145 41.9998 0 31.3877 0 21.3445C0 14.012 2.93746 9.67451 5.6315 6.71606C8.35596 3.7253 12.3666 1.47143 16.4946 0.480257C19.8426 -0.321302 23.4642 0.122591 23.4642 0.122591C14.4805 -0.754392 4.48648 6.14075 5.6315 15.7293C6.43615 22.4674 13.4094 24.5012 16.7813 24.025C20.6659 23.4777 23.7749 21.8358 28.2527 17.3927ZM35.8624 22.998C35.8624 23.6441 35.3342 24.168 34.6827 24.168C34.0311 24.168 33.5029 23.6441 33.5029 22.998C33.5029 22.3518 34.0311 21.8279 34.6827 21.8279C35.3342 21.8279 35.8624 22.3518 35.8624 22.998Z" fill="url(#paint1_radial_180_2020)"/>
<path d="M34.9385 11.9442C34.9385 11.9442 36.8572 10.8811 38.0521 11.6353C39.4279 12.5036 40.5278 15.253 39.3346 20.3811C38.3346 24.6785 36.4178 27.0871 36.4178 27.0871C36.4178 27.0871 41.3233 25.1147 42.1003 17.7683C41.5885 14.5955 40.9507 13.0166 39.6033 10.6591C37.4003 10.1269 34.9385 11.9442 34.9385 11.9442Z" fill="url(#paint2_linear_180_2020)"/>
<defs>
<linearGradient id="paint0_linear_180_2020" x1="16.9681" y1="25.1737" x2="36.4871" y2="5.49052" gradientUnits="userSpaceOnUse">
<stop stop-color="#E95C3F"/>
<stop offset="1" stop-color="#FF5D69"/>
</linearGradient>
<radialGradient id="paint1_radial_180_2020" cx="0" cy="0" r="1" gradientUnits="userSpaceOnUse" gradientTransform="translate(23.0623 7.54132) rotate(89.2779) scale(34.4784 34.7645)">
<stop stop-color="#FFDA00"/>
<stop offset="0.83" stop-color="#FF9B00"/>
<stop offset="1" stop-color="#FF5D69"/>
</radialGradient>
<linearGradient id="paint2_linear_180_2020" x1="24.4602" y1="32.6051" x2="43.9793" y2="12.924" gradientUnits="userSpaceOnUse">
<stop stop-color="#E95C3F"/>
<stop offset="1" stop-color="#FF5D69"/>
</linearGradient>
</defs>
</svg>
