<svg xmlns="http://www.w3.org/2000/svg" width="33" height="32" viewBox="0 0 33 32" fill="none">
    <path d="M29.5 16C29.5 12.5522 28.1304 9.24558 25.6924 6.80761C23.2544 4.36964 19.9478 3 16.5 3C13.0522 3 9.74558 4.36964 7.30761 6.80761C4.86964 9.24558 3.5 12.5522 3.5 16C3.5 19.4478 4.86964 22.7544 7.30761 25.1924C9.74558 27.6304 13.0522 29 16.5 29C19.9478 29 23.2544 27.6304 25.6924 25.1924C28.1304 22.7544 29.5 19.4478 29.5 16ZM0.5 16C0.5 11.7565 2.18571 7.68687 5.18629 4.68629C8.18687 1.68571 12.2565 0 16.5 0C20.7435 0 24.8131 1.68571 27.8137 4.68629C30.8143 7.68687 32.5 11.7565 32.5 16C32.5 20.2435 30.8143 24.3131 27.8137 27.3137C24.8131 30.3143 20.7435 32 16.5 32C12.2565 32 8.18687 30.3143 5.18629 27.3137C2.18571 24.3131 0.5 20.2435 0.5 16ZM8.66875 19.6187C8.40625 18.7687 9.1125 18 10 18H23.2812C24.1688 18 24.875 18.775 24.6125 19.6187C23.5625 23.025 20.3875 25.5 16.6375 25.5C12.8875 25.5 9.7125 23.025 8.66875 19.6187ZM9.525 12C9.525 11.4696 9.73571 10.9609 10.1108 10.5858C10.4859 10.2107 10.9946 10 11.525 10C12.0554 10 12.5641 10.2107 12.9392 10.5858C13.3143 10.9609 13.525 11.4696 13.525 12C13.525 12.5304 13.3143 13.0391 12.9392 13.4142C12.5641 13.7893 12.0554 14 11.525 14C10.9946 14 10.4859 13.7893 10.1108 13.4142C9.73571 13.0391 9.525 12.5304 9.525 12ZM21.525 10C22.0554 10 22.5641 10.2107 22.9392 10.5858C23.3143 10.9609 23.525 11.4696 23.525 12C23.525 12.5304 23.3143 13.0391 22.9392 13.4142C22.5641 13.7893 22.0554 14 21.525 14C20.9946 14 20.4859 13.7893 20.1108 13.4142C19.7357 13.0391 19.525 12.5304 19.525 12C19.525 11.4696 19.7357 10.9609 20.1108 10.5858C20.4859 10.2107 20.9946 10 21.525 10Z" fill="#00C95C"/>
</svg>