<svg width="32" height="32" viewBox="0 0 32 32" fill="none" xmlns="http://www.w3.org/2000/svg">
<g clip-path="url(#clip0_180_2034)">
<path d="M15.5 3C18.9478 3 22.2544 4.36964 24.6924 6.80761C27.1304 9.24558 28.5 12.5522 28.5 16C28.5 19.4478 27.1304 22.7544 24.6924 25.1924C22.2544 27.6304 18.9478 29 15.5 29C12.0522 29 8.74558 27.6304 6.30761 25.1924C3.86964 22.7544 2.5 19.4478 2.5 16C2.5 12.5522 3.86964 9.24558 6.30761 6.80761C8.74558 4.36964 12.0522 3 15.5 3ZM15.5 32C19.7435 32 23.8131 30.3143 26.8137 27.3137C29.8143 24.3131 31.5 20.2435 31.5 16C31.5 11.7565 29.8143 7.68687 26.8137 4.68629C23.8131 1.68571 19.7435 0 15.5 0C11.2565 0 7.18687 1.68571 4.18629 4.68629C1.18571 7.68687 -0.5 11.7565 -0.5 16C-0.5 20.2435 1.18571 24.3131 4.18629 27.3137C7.18687 30.3143 11.2565 32 15.5 32ZM10 23.5C10 24.3312 10.6687 25 11.5 25H19.5C20.3312 25 21 24.3312 21 23.5C21 22.6688 20.3312 22 19.5 22H11.5C10.6687 22 10 22.6688 10 23.5ZM9.5 17C7.84375 17 6.5 15.6562 6.5 14C6.5 13.1062 6.89375 12.3 7.5125 11.75C7.5 11.8313 7.5 11.9125 7.5 12C7.5 13.1062 8.39375 14 9.5 14C10.6062 14 11.5 13.1062 11.5 12C11.5 11.9125 11.4938 11.8313 11.4875 11.75C12.1125 12.3 12.5 13.1062 12.5 14C12.5 15.6562 11.1562 17 9.5 17ZM9.5 19C10.8261 19 12.0979 18.4732 13.0355 17.5355C13.9732 16.5979 14.5 15.3261 14.5 14C14.5 12.6739 13.9732 11.4021 13.0355 10.4645C12.0979 9.52678 10.8261 9 9.5 9C8.17392 9 6.90215 9.52678 5.96447 10.4645C5.02678 11.4021 4.5 12.6739 4.5 14C4.5 15.3261 5.02678 16.5979 5.96447 17.5355C6.90215 18.4732 8.17392 19 9.5 19ZM21.5 17C19.8438 17 18.5 15.6562 18.5 14C18.5 13.1062 18.8938 12.3 19.5125 11.75C19.5 11.8313 19.5 11.9125 19.5 12C19.5 13.1062 20.3937 14 21.5 14C22.6063 14 23.5 13.1062 23.5 12C23.5 11.9125 23.4937 11.8313 23.4875 11.75C24.1125 12.3 24.5 13.1062 24.5 14C24.5 15.6562 23.1562 17 21.5 17ZM21.5 19C22.8261 19 24.0979 18.4732 25.0355 17.5355C25.9732 16.5979 26.5 15.3261 26.5 14C26.5 12.6739 25.9732 11.4021 25.0355 10.4645C24.0979 9.52678 22.8261 9 21.5 9C20.1739 9 18.9021 9.52678 17.9645 10.4645C17.0268 11.4021 16.5 12.6739 16.5 14C16.5 15.3261 17.0268 16.5979 17.9645 17.5355C18.9021 18.4732 20.1739 19 21.5 19Z" fill="#F49138"/>
</g>
<defs>
<clipPath id="clip0_180_2034">
<rect width="32" height="32" fill="white"/>
</clipPath>
</defs>
</svg>
