<svg width="32" height="32" viewBox="0 0 32 32" fill="none" xmlns="http://www.w3.org/2000/svg">
<g clip-path="url(#clip0_180_2036)">
<path d="M28.5 16C28.5 12.5522 27.1304 9.24558 24.6924 6.80761C22.2544 4.36964 18.9478 3 15.5 3C12.0522 3 8.74558 4.36964 6.30761 6.80761C3.86964 9.24558 2.5 12.5522 2.5 16C2.5 19.4478 3.86964 22.7544 6.30761 25.1924C8.74558 27.6304 12.0522 29 15.5 29C18.9478 29 22.2544 27.6304 24.6924 25.1924C27.1304 22.7544 28.5 19.4478 28.5 16ZM-0.5 16C-0.5 11.7565 1.18571 7.68687 4.18629 4.68629C7.18687 1.68571 11.2565 0 15.5 0C19.7435 0 23.8131 1.68571 26.8137 4.68629C29.8143 7.68687 31.5 11.7565 31.5 16C31.5 20.2435 29.8143 24.3131 26.8137 27.3137C23.8131 30.3143 19.7435 32 15.5 32C11.2565 32 7.18687 30.3143 4.18629 27.3137C1.18571 24.3131 -0.5 20.2435 -0.5 16ZM10.6 19.8813C11.55 20.9062 13.175 22 15.5 22C17.825 22 19.45 20.9062 20.4 19.8813C20.9625 19.275 21.9125 19.2313 22.5187 19.7938C23.125 20.3563 23.1688 21.3062 22.6063 21.9125C21.2313 23.4 18.8563 25 15.5063 25C12.1562 25 9.775 23.4062 8.40625 21.9125C7.84375 21.3062 7.88125 20.3563 8.49375 19.7938C9.10625 19.2313 10.05 19.2688 10.6125 19.8813H10.6ZM8.525 13C8.525 12.4696 8.73571 11.9609 9.11079 11.5858C9.48586 11.2107 9.99457 11 10.525 11C11.0554 11 11.5641 11.2107 11.9392 11.5858C12.3143 11.9609 12.525 12.4696 12.525 13C12.525 13.5304 12.3143 14.0391 11.9392 14.4142C11.5641 14.7893 11.0554 15 10.525 15C9.99457 15 9.48586 14.7893 9.11079 14.4142C8.73571 14.0391 8.525 13.5304 8.525 13ZM20.525 11C21.0554 11 21.5641 11.2107 21.9392 11.5858C22.3143 11.9609 22.525 12.4696 22.525 13C22.525 13.5304 22.3143 14.0391 21.9392 14.4142C21.5641 14.7893 21.0554 15 20.525 15C19.9946 15 19.4859 14.7893 19.1108 14.4142C18.7357 14.0391 18.525 13.5304 18.525 13C18.525 12.4696 18.7357 11.9609 19.1108 11.5858C19.4859 11.2107 19.9946 11 20.525 11Z" fill="#88D723"/>
</g>
<defs>
<clipPath id="clip0_180_2036">
<rect width="32" height="32" fill="white"/>
</clipPath>
</defs>
</svg>
